<svg width="6419" height="635" viewBox="0 0 6419 635" fill="none" xmlns="http://www.w3.org/2000/svg">
<path d="M52.9151 317.49C67.7313 317.49 80.0781 322.782 89.9556 333.365C100.539 343.242 105.83 355.589 105.83 370.405C105.83 385.222 100.539 397.921 89.9556 408.504C80.0781 418.382 67.7313 423.32 52.9151 423.32C38.0988 423.32 25.3992 418.382 14.8162 408.504C4.93874 397.921 0 385.222 0 370.405C0 355.589 4.93874 343.242 14.8162 333.365C25.3992 322.782 38.0988 317.49 52.9151 317.49ZM158.745 317.49C173.561 317.49 185.908 322.782 195.786 333.365C206.369 343.242 211.66 355.589 211.66 370.405C211.66 385.222 206.369 397.921 195.786 408.504C185.908 418.382 173.561 423.32 158.745 423.32C143.929 423.32 131.229 418.382 120.646 408.504C110.769 397.921 105.83 385.222 105.83 370.405C105.83 355.589 110.769 343.242 120.646 333.365C131.229 322.782 143.929 317.49 158.745 317.49ZM264.575 317.49C279.392 317.49 291.738 322.782 301.616 333.365C312.199 343.242 317.49 355.589 317.49 370.405C317.49 385.222 312.199 397.921 301.616 408.504C291.738 418.382 279.392 423.32 264.575 423.32C249.759 423.32 237.059 418.382 226.476 408.504C216.599 397.921 211.66 385.222 211.66 370.405C211.66 355.589 216.599 343.242 226.476 333.365C237.059 322.782 249.759 317.49 264.575 317.49ZM52.9151 529.151C67.7313 529.151 80.0781 534.442 89.9556 545.025C100.539 554.903 105.83 567.249 105.83 582.066C105.83 596.882 100.539 609.581 89.9556 620.164C80.0781 630.042 67.7313 634.981 52.9151 634.981C38.0988 634.981 25.3992 630.042 14.8162 620.164C4.93874 609.581 0 596.882 0 582.066C0 567.249 4.93874 554.903 14.8162 545.025C25.3992 534.442 38.0988 529.151 52.9151 529.151ZM158.745 529.151C173.561 529.151 185.908 534.442 195.786 545.025C206.369 554.903 211.66 567.249 211.66 582.066C211.66 596.882 206.369 609.581 195.786 620.164C185.908 630.042 173.561 634.981 158.745 634.981C143.929 634.981 131.229 630.042 120.646 620.164C110.769 609.581 105.83 596.882 105.83 582.066C105.83 567.249 110.769 554.903 120.646 545.025C131.229 534.442 143.929 529.151 158.745 529.151ZM264.575 529.151C279.392 529.151 291.738 534.442 301.616 545.025C312.199 554.903 317.49 567.249 317.49 582.066C317.49 596.882 312.199 609.581 301.616 620.164C291.738 630.042 279.392 634.981 264.575 634.981C249.759 634.981 237.059 630.042 226.476 620.164C216.599 609.581 211.66 596.882 211.66 582.066C211.66 567.249 216.599 554.903 226.476 545.025C237.059 534.442 249.759 529.151 264.575 529.151ZM370.405 317.49C385.222 317.49 397.568 322.782 407.446 333.365C418.029 343.242 423.32 355.589 423.32 370.405C423.32 385.222 418.029 397.921 407.446 408.504C397.568 418.382 385.222 423.32 370.405 423.32C355.589 423.32 342.89 418.382 332.307 408.504C322.429 397.921 317.49 385.222 317.49 370.405C317.49 355.589 322.429 343.242 332.307 333.365C342.89 322.782 355.589 317.49 370.405 317.49ZM52.9151 211.66C67.7313 211.66 80.0781 216.952 89.9556 227.535C100.539 237.412 105.83 249.759 105.83 264.575C105.83 279.392 100.539 292.091 89.9556 302.674C80.0781 312.552 67.7313 317.49 52.9151 317.49C38.0988 317.49 25.3992 312.552 14.8162 302.674C4.93874 292.091 0 279.392 0 264.575C0 249.759 4.93874 237.412 14.8162 227.535C25.3992 216.952 38.0988 211.66 52.9151 211.66ZM158.745 105.83C173.561 105.83 185.908 111.122 195.786 121.705C206.369 131.582 211.66 143.929 211.66 158.745C211.66 173.561 206.369 186.261 195.786 196.844C185.908 206.721 173.561 211.66 158.745 211.66C143.929 211.66 131.229 206.721 120.646 196.844C110.769 186.261 105.83 173.561 105.83 158.745C105.83 143.929 110.769 131.582 120.646 121.705C131.229 111.122 143.929 105.83 158.745 105.83ZM264.575 105.83C279.392 105.83 291.738 111.122 301.616 121.705C312.199 131.582 317.49 143.929 317.49 158.745C317.49 173.561 312.199 186.261 301.616 196.844C291.738 206.721 279.392 211.66 264.575 211.66C249.759 211.66 237.059 206.721 226.476 196.844C216.599 186.261 211.66 173.561 211.66 158.745C211.66 143.929 216.599 131.582 226.476 121.705C237.059 111.122 249.759 105.83 264.575 105.83ZM370.405 105.83C385.222 105.83 397.568 111.122 407.446 121.705C418.029 131.582 423.32 143.929 423.32 158.745C423.32 173.561 418.029 186.261 407.446 196.844C397.568 206.721 385.222 211.66 370.405 211.66C355.589 211.66 342.89 206.721 332.307 196.844C322.429 186.261 317.49 173.561 317.49 158.745C317.49 143.929 322.429 131.582 332.307 121.705C342.89 111.122 355.589 105.83 370.405 105.83ZM370.405 423.32C385.222 423.32 397.568 428.612 407.446 439.195C418.029 449.072 423.32 461.419 423.32 476.236C423.32 491.052 418.029 503.751 407.446 514.334C397.568 524.212 385.222 529.151 370.405 529.151C355.589 529.151 342.89 524.212 332.307 514.334C322.429 503.751 317.49 491.052 317.49 476.236C317.49 461.419 322.429 449.072 332.307 439.195C342.89 428.612 355.589 423.32 370.405 423.32Z" fill="black"/>
<path d="M1037.14 317.49C1051.95 317.49 1064.3 322.782 1074.18 333.365C1084.76 343.242 1090.05 355.589 1090.05 370.405C1090.05 385.222 1084.76 397.921 1074.18 408.504C1064.3 418.382 1051.95 423.32 1037.14 423.32C1022.32 423.32 1009.62 418.382 999.036 408.504C989.159 397.921 984.22 385.222 984.22 370.405C984.22 355.589 989.159 343.242 999.036 333.365C1009.62 322.782 1022.32 317.49 1037.14 317.49ZM613.815 317.49C628.631 317.49 640.978 322.782 650.855 333.365C661.438 343.242 666.73 355.589 666.73 370.405C666.73 385.222 661.438 397.921 650.855 408.504C640.978 418.382 628.631 423.32 613.815 423.32C598.998 423.32 586.299 418.382 575.716 408.504C565.838 397.921 560.9 385.222 560.9 370.405C560.9 355.589 565.838 343.242 575.716 333.365C586.299 322.782 598.998 317.49 613.815 317.49ZM613.815 423.32C628.631 423.32 640.978 428.612 650.855 439.195C661.438 449.072 666.73 461.419 666.73 476.236C666.73 491.052 661.438 503.751 650.855 514.334C640.978 524.212 628.631 529.151 613.815 529.151C598.998 529.151 586.299 524.212 575.716 514.334C565.838 503.751 560.9 491.052 560.9 476.236C560.9 461.419 565.838 449.072 575.716 439.195C586.299 428.612 598.998 423.32 613.815 423.32ZM1037.14 529.151C1051.95 529.151 1064.3 534.442 1074.18 545.025C1084.76 554.903 1090.05 567.249 1090.05 582.066C1090.05 596.882 1084.76 609.581 1074.18 620.164C1064.3 630.042 1051.95 634.981 1037.14 634.981C1022.32 634.981 1009.62 630.042 999.036 620.164C989.159 609.581 984.22 596.882 984.22 582.066C984.22 567.249 989.159 554.903 999.036 545.025C1009.62 534.442 1022.32 529.151 1037.14 529.151ZM613.815 529.151C628.631 529.151 640.978 534.442 650.855 545.025C661.438 554.903 666.73 567.249 666.73 582.066C666.73 596.882 661.438 609.581 650.855 620.164C640.978 630.042 628.631 634.981 613.815 634.981C598.998 634.981 586.299 630.042 575.716 620.164C565.838 609.581 560.9 596.882 560.9 582.066C560.9 567.249 565.838 554.903 575.716 545.025C586.299 534.442 598.998 529.151 613.815 529.151ZM1037.14 211.66C1051.95 211.66 1064.3 216.952 1074.18 227.535C1084.76 237.412 1090.05 249.759 1090.05 264.575C1090.05 279.392 1084.76 292.091 1074.18 302.674C1064.3 312.552 1051.95 317.49 1037.14 317.49C1022.32 317.49 1009.62 312.552 999.036 302.674C989.159 292.091 984.22 279.392 984.22 264.575C984.22 249.759 989.159 237.412 999.036 227.535C1009.62 216.952 1022.32 211.66 1037.14 211.66ZM613.815 211.66C628.631 211.66 640.978 216.952 650.855 227.535C661.438 237.412 666.73 249.759 666.73 264.575C666.73 279.392 661.438 292.091 650.855 302.674C640.978 312.552 628.631 317.49 613.815 317.49C598.998 317.49 586.299 312.552 575.716 302.674C565.838 292.091 560.9 279.392 560.9 264.575C560.9 249.759 565.838 237.412 575.716 227.535C586.299 216.952 598.998 211.66 613.815 211.66ZM719.645 211.66C734.461 211.66 746.808 216.952 756.685 227.535C767.268 237.412 772.56 249.759 772.56 264.575C772.56 279.392 767.268 292.091 756.685 302.674C746.808 312.552 734.461 317.49 719.645 317.49C704.828 317.49 692.129 312.552 681.546 302.674C671.668 292.091 666.73 279.392 666.73 264.575C666.73 249.759 671.668 237.412 681.546 227.535C692.129 216.952 704.828 211.66 719.645 211.66ZM825.475 105.83C840.291 105.83 852.638 111.122 862.515 121.705C873.098 131.582 878.39 143.929 878.39 158.745C878.39 173.561 873.098 186.261 862.515 196.844C852.638 206.721 840.291 211.66 825.475 211.66C810.659 211.66 797.959 206.721 787.376 196.844C777.499 186.261 772.56 173.561 772.56 158.745C772.56 143.929 777.499 131.582 787.376 121.705C797.959 111.122 810.659 105.83 825.475 105.83ZM931.305 105.83C946.121 105.83 958.468 111.122 968.346 121.705C978.929 131.582 984.22 143.929 984.22 158.745C984.22 173.561 978.929 186.261 968.346 196.844C958.468 206.721 946.121 211.66 931.305 211.66C916.489 211.66 903.789 206.721 893.206 196.844C883.329 186.261 878.39 173.561 878.39 158.745C878.39 143.929 883.329 131.582 893.206 121.705C903.789 111.122 916.489 105.83 931.305 105.83ZM613.815 105.83C628.631 105.83 640.978 111.122 650.855 121.705C661.438 131.582 666.73 143.929 666.73 158.745C666.73 173.561 661.438 186.261 650.855 196.844C640.978 206.721 628.631 211.66 613.815 211.66C598.998 211.66 586.299 206.721 575.716 196.844C565.838 186.261 560.9 173.561 560.9 158.745C560.9 143.929 565.838 131.582 575.716 121.705C586.299 111.122 598.998 105.83 613.815 105.83ZM613.815 0C628.631 0 640.978 5.2915 650.855 15.8745C661.438 25.752 666.73 38.0988 666.73 52.9151C666.73 67.7313 661.438 80.4309 650.855 91.0139C640.978 100.891 628.631 105.83 613.815 105.83C598.998 105.83 586.299 100.891 575.716 91.0139C565.838 80.4309 560.9 67.7313 560.9 52.9151C560.9 38.0988 565.838 25.752 575.716 15.8745C586.299 5.2915 598.998 0 613.815 0ZM1037.14 423.32C1051.95 423.32 1064.3 428.612 1074.18 439.195C1084.76 449.072 1090.05 461.419 1090.05 476.236C1090.05 491.052 1084.76 503.751 1074.18 514.334C1064.3 524.212 1051.95 529.151 1037.14 529.151C1022.32 529.151 1009.62 524.212 999.036 514.334C989.159 503.751 984.22 491.052 984.22 476.236C984.22 461.419 989.159 449.072 999.036 439.195C1009.62 428.612 1022.32 423.32 1037.14 423.32Z" fill="black"/>
<path d="M1280.13 317.49C1294.95 317.49 1307.29 322.782 1317.17 333.365C1327.75 343.242 1333.05 355.589 1333.05 370.405C1333.05 385.222 1327.75 397.921 1317.17 408.504C1307.29 418.382 1294.95 423.32 1280.13 423.32C1265.31 423.32 1252.61 418.382 1242.03 408.504C1232.15 397.921 1227.22 385.222 1227.22 370.405C1227.22 355.589 1232.15 343.242 1242.03 333.365C1252.61 322.782 1265.31 317.49 1280.13 317.49ZM1280.13 423.32C1294.95 423.32 1307.29 428.612 1317.17 439.195C1327.75 449.072 1333.05 461.419 1333.05 476.236C1333.05 491.052 1327.75 503.751 1317.17 514.334C1307.29 524.212 1294.95 529.151 1280.13 529.151C1265.31 529.151 1252.61 524.212 1242.03 514.334C1232.15 503.751 1227.22 491.052 1227.22 476.236C1227.22 461.419 1232.15 449.072 1242.03 439.195C1252.61 428.612 1265.31 423.32 1280.13 423.32ZM1385.96 529.151C1400.78 529.151 1413.12 534.442 1423 545.025C1433.58 554.903 1438.88 567.249 1438.88 582.066C1438.88 596.882 1433.58 609.581 1423 620.164C1413.12 630.042 1400.78 634.981 1385.96 634.981C1371.14 634.981 1358.45 630.042 1347.86 620.164C1337.98 609.581 1333.05 596.882 1333.05 582.066C1333.05 567.249 1337.98 554.903 1347.86 545.025C1358.45 534.442 1371.14 529.151 1385.96 529.151ZM1280.13 211.66C1294.95 211.66 1307.29 216.952 1317.17 227.535C1327.75 237.412 1333.05 249.759 1333.05 264.575C1333.05 279.392 1327.75 292.091 1317.17 302.674C1307.29 312.552 1294.95 317.49 1280.13 317.49C1265.31 317.49 1252.61 312.552 1242.03 302.674C1232.15 292.091 1227.22 279.392 1227.22 264.575C1227.22 249.759 1232.15 237.412 1242.03 227.535C1252.61 216.952 1265.31 211.66 1280.13 211.66ZM1385.96 105.83C1400.78 105.83 1413.12 111.122 1423 121.705C1433.58 131.582 1438.88 143.929 1438.88 158.745C1438.88 173.561 1433.58 186.261 1423 196.844C1413.12 206.721 1400.78 211.66 1385.96 211.66C1371.14 211.66 1358.45 206.721 1347.86 196.844C1337.98 186.261 1333.05 173.561 1333.05 158.745C1333.05 143.929 1337.98 131.582 1347.86 121.705C1358.45 111.122 1371.14 105.83 1385.96 105.83ZM1491.79 105.83C1506.61 105.83 1518.95 111.122 1528.83 121.705C1539.41 131.582 1544.71 143.929 1544.71 158.745C1544.71 173.561 1539.41 186.261 1528.83 196.844C1518.95 206.721 1506.61 211.66 1491.79 211.66C1476.97 211.66 1464.28 206.721 1453.69 196.844C1443.81 186.261 1438.88 173.561 1438.88 158.745C1438.88 143.929 1443.81 131.582 1453.69 121.705C1464.28 111.122 1476.97 105.83 1491.79 105.83ZM1597.62 105.83C1612.44 105.83 1624.78 111.122 1634.66 121.705C1645.24 131.582 1650.54 143.929 1650.54 158.745C1650.54 173.561 1645.24 186.261 1634.66 196.844C1624.78 206.721 1612.44 211.66 1597.62 211.66C1582.8 211.66 1570.11 206.721 1559.52 196.844C1549.64 186.261 1544.71 173.561 1544.71 158.745C1544.71 143.929 1549.64 131.582 1559.52 121.705C1570.11 111.122 1582.8 105.83 1597.62 105.83ZM1703.45 317.49C1718.27 317.49 1730.61 322.782 1740.49 333.365C1751.07 343.242 1756.37 355.589 1756.37 370.405C1756.37 385.222 1751.07 397.921 1740.49 408.504C1730.61 418.382 1718.27 423.32 1703.45 423.32C1688.64 423.32 1675.94 418.382 1665.35 408.504C1655.47 397.921 1650.54 385.222 1650.54 370.405C1650.54 355.589 1655.47 343.242 1665.35 333.365C1675.94 322.782 1688.64 317.49 1703.45 317.49ZM1491.79 529.151C1506.61 529.151 1518.95 534.442 1528.83 545.025C1539.41 554.903 1544.71 567.249 1544.71 582.066C1544.71 596.882 1539.41 609.581 1528.83 620.164C1518.95 630.042 1506.61 634.981 1491.79 634.981C1476.97 634.981 1464.28 630.042 1453.69 620.164C1443.81 609.581 1438.88 596.882 1438.88 582.066C1438.88 567.249 1443.81 554.903 1453.69 545.025C1464.28 534.442 1476.97 529.151 1491.79 529.151ZM1597.62 529.151C1612.44 529.151 1624.78 534.442 1634.66 545.025C1645.24 554.903 1650.54 567.249 1650.54 582.066C1650.54 596.882 1645.24 609.581 1634.66 620.164C1624.78 630.042 1612.44 634.981 1597.62 634.981C1582.8 634.981 1570.11 630.042 1559.52 620.164C1549.64 609.581 1544.71 596.882 1544.71 582.066C1544.71 567.249 1549.64 554.903 1559.52 545.025C1570.11 534.442 1582.8 529.151 1597.62 529.151ZM1703.45 211.66C1718.27 211.66 1730.61 216.952 1740.49 227.535C1751.07 237.412 1756.37 249.759 1756.37 264.575C1756.37 279.392 1751.07 292.091 1740.49 302.674C1730.61 312.552 1718.27 317.49 1703.45 317.49C1688.64 317.49 1675.94 312.552 1665.35 302.674C1655.47 292.091 1650.54 279.392 1650.54 264.575C1650.54 249.759 1655.47 237.412 1665.35 227.535C1675.94 216.952 1688.64 211.66 1703.45 211.66ZM1703.45 423.32C1718.27 423.32 1730.61 428.612 1740.49 439.195C1751.07 449.072 1756.37 461.419 1756.37 476.236C1756.37 491.052 1751.07 503.751 1740.49 514.334C1730.61 524.212 1718.27 529.151 1703.45 529.151C1688.64 529.151 1675.94 524.212 1665.35 514.334C1655.47 503.751 1650.54 491.052 1650.54 476.236C1650.54 461.419 1655.47 449.072 1665.35 439.195C1675.94 428.612 1688.64 423.32 1703.45 423.32Z" fill="black"/>
<path d="M2369.77 317.49C2384.58 317.49 2396.93 322.782 2406.81 333.365C2417.39 343.242 2422.68 355.589 2422.68 370.405C2422.68 385.222 2417.39 397.921 2406.81 408.504C2396.93 418.382 2384.58 423.32 2369.77 423.32C2354.95 423.32 2342.25 418.382 2331.67 408.504C2321.79 397.921 2316.85 385.222 2316.85 370.405C2316.85 355.589 2321.79 343.242 2331.67 333.365C2342.25 322.782 2354.95 317.49 2369.77 317.49ZM2263.94 423.32C2278.75 423.32 2291.1 428.612 2300.98 439.195C2311.56 449.072 2316.85 461.419 2316.85 476.236C2316.85 491.052 2311.56 503.751 2300.98 514.334C2291.1 524.212 2278.75 529.151 2263.94 529.151C2249.12 529.151 2236.42 524.212 2225.84 514.334C2215.96 503.751 2211.02 491.052 2211.02 476.236C2211.02 461.419 2215.96 449.072 2225.84 439.195C2236.42 428.612 2249.12 423.32 2263.94 423.32ZM2052.28 423.32C2067.09 423.32 2079.44 428.612 2089.32 439.195C2099.9 449.072 2105.19 461.419 2105.19 476.236C2105.19 491.052 2099.9 503.751 2089.32 514.334C2079.44 524.212 2067.09 529.151 2052.28 529.151C2037.46 529.151 2024.76 524.212 2014.18 514.334C2004.3 503.751 1999.36 491.052 1999.36 476.236C1999.36 461.419 2004.3 449.072 2014.18 439.195C2024.76 428.612 2037.46 423.32 2052.28 423.32ZM2158.11 529.151C2172.92 529.151 2185.27 534.442 2195.15 545.025C2205.73 554.903 2211.02 567.249 2211.02 582.066C2211.02 596.882 2205.73 609.581 2195.15 620.164C2185.27 630.042 2172.92 634.981 2158.11 634.981C2143.29 634.981 2130.59 630.042 2120.01 620.164C2110.13 609.581 2105.19 596.882 2105.19 582.066C2105.19 567.249 2110.13 554.903 2120.01 545.025C2130.59 534.442 2143.29 529.151 2158.11 529.151ZM2369.77 211.66C2384.58 211.66 2396.93 216.952 2406.81 227.535C2417.39 237.412 2422.68 249.759 2422.68 264.575C2422.68 279.392 2417.39 292.091 2406.81 302.674C2396.93 312.552 2384.58 317.49 2369.77 317.49C2354.95 317.49 2342.25 312.552 2331.67 302.674C2321.79 292.091 2316.85 279.392 2316.85 264.575C2316.85 249.759 2321.79 237.412 2331.67 227.535C2342.25 216.952 2354.95 211.66 2369.77 211.66ZM1946.45 211.66C1961.26 211.66 1973.61 216.952 1983.49 227.535C1994.07 237.412 1999.36 249.759 1999.36 264.575C1999.36 279.392 1994.07 292.091 1983.49 302.674C1973.61 312.552 1961.26 317.49 1946.45 317.49C1931.63 317.49 1918.93 312.552 1908.35 302.674C1898.47 292.091 1893.53 279.392 1893.53 264.575C1893.53 249.759 1898.47 237.412 1908.35 227.535C1918.93 216.952 1931.63 211.66 1946.45 211.66ZM2369.77 105.83C2384.58 105.83 2396.93 111.122 2406.81 121.705C2417.39 131.582 2422.68 143.929 2422.68 158.745C2422.68 173.561 2417.39 186.261 2406.81 196.844C2396.93 206.721 2384.58 211.66 2369.77 211.66C2354.95 211.66 2342.25 206.721 2331.67 196.844C2321.79 186.261 2316.85 173.561 2316.85 158.745C2316.85 143.929 2321.79 131.582 2331.67 121.705C2342.25 111.122 2354.95 105.83 2369.77 105.83ZM1946.45 105.83C1961.26 105.83 1973.61 111.122 1983.49 121.705C1994.07 131.582 1999.36 143.929 1999.36 158.745C1999.36 173.561 1994.07 186.261 1983.49 196.844C1973.61 206.721 1961.26 211.66 1946.45 211.66C1931.63 211.66 1918.93 206.721 1908.35 196.844C1898.47 186.261 1893.53 173.561 1893.53 158.745C1893.53 143.929 1898.47 131.582 1908.35 121.705C1918.93 111.122 1931.63 105.83 1946.45 105.83ZM1946.45 317.49C1961.26 317.49 1973.61 322.782 1983.49 333.365C1994.07 343.242 1999.36 355.589 1999.36 370.405C1999.36 385.222 1994.07 397.921 1983.49 408.504C1973.61 418.382 1961.26 423.32 1946.45 423.32C1931.63 423.32 1918.93 418.382 1908.35 408.504C1898.47 397.921 1893.53 385.222 1893.53 370.405C1893.53 355.589 1898.47 343.242 1908.35 333.365C1918.93 322.782 1931.63 317.49 1946.45 317.49ZM2793.09 317.49C2807.9 317.49 2820.25 322.782 2830.13 333.365C2840.71 343.242 2846 355.589 2846 370.405C2846 385.222 2840.71 397.921 2830.13 408.504C2820.25 418.382 2807.9 423.32 2793.09 423.32C2778.27 423.32 2765.57 418.382 2754.99 408.504C2745.11 397.921 2740.17 385.222 2740.17 370.405C2740.17 355.589 2745.11 343.242 2754.99 333.365C2765.57 322.782 2778.27 317.49 2793.09 317.49ZM2687.26 423.32C2702.07 423.32 2714.42 428.612 2724.3 439.195C2734.88 449.072 2740.17 461.419 2740.17 476.236C2740.17 491.052 2734.88 503.751 2724.3 514.334C2714.42 524.212 2702.07 529.151 2687.26 529.151C2672.44 529.151 2659.74 524.212 2649.16 514.334C2639.28 503.751 2634.34 491.052 2634.34 476.236C2634.34 461.419 2639.28 449.072 2649.16 439.195C2659.74 428.612 2672.44 423.32 2687.26 423.32ZM2475.6 423.32C2490.41 423.32 2502.76 428.612 2512.64 439.195C2523.22 449.072 2528.51 461.419 2528.51 476.236C2528.51 491.052 2523.22 503.751 2512.64 514.334C2502.76 524.212 2490.41 529.151 2475.6 529.151C2460.78 529.151 2448.08 524.212 2437.5 514.334C2427.62 503.751 2422.68 491.052 2422.68 476.236C2422.68 461.419 2427.62 449.072 2437.5 439.195C2448.08 428.612 2460.78 423.32 2475.6 423.32ZM2581.43 529.151C2596.24 529.151 2608.59 534.442 2618.47 545.025C2629.05 554.903 2634.34 567.249 2634.34 582.066C2634.34 596.882 2629.05 609.581 2618.47 620.164C2608.59 630.042 2596.24 634.981 2581.43 634.981C2566.61 634.981 2553.91 630.042 2543.33 620.164C2533.45 609.581 2528.51 596.882 2528.51 582.066C2528.51 567.249 2533.45 554.903 2543.33 545.025C2553.91 534.442 2566.61 529.151 2581.43 529.151ZM2793.09 211.66C2807.9 211.66 2820.25 216.952 2830.13 227.535C2840.71 237.412 2846 249.759 2846 264.575C2846 279.392 2840.71 292.091 2830.13 302.674C2820.25 312.552 2807.9 317.49 2793.09 317.49C2778.27 317.49 2765.57 312.552 2754.99 302.674C2745.11 292.091 2740.17 279.392 2740.17 264.575C2740.17 249.759 2745.11 237.412 2754.99 227.535C2765.57 216.952 2778.27 211.66 2793.09 211.66ZM2793.09 105.83C2807.9 105.83 2820.25 111.122 2830.13 121.705C2840.71 131.582 2846 143.929 2846 158.745C2846 173.561 2840.71 186.261 2830.13 196.844C2820.25 206.721 2807.9 211.66 2793.09 211.66C2778.27 211.66 2765.57 206.721 2754.99 196.844C2745.11 186.261 2740.17 173.561 2740.17 158.745C2740.17 143.929 2745.11 131.582 2754.99 121.705C2765.57 111.122 2778.27 105.83 2793.09 105.83Z" fill="black"/>
<path d="M3033.51 317.487C3048.32 317.487 3060.67 322.779 3070.55 333.362C3081.13 343.239 3086.42 355.586 3086.42 370.402C3086.42 385.218 3081.13 397.918 3070.55 408.501C3060.67 418.379 3048.32 423.317 3033.51 423.317C3018.69 423.317 3005.99 418.379 2995.41 408.501C2985.53 397.918 2980.59 385.218 2980.59 370.402C2980.59 355.586 2985.53 343.239 2995.41 333.362C3005.99 322.779 3018.69 317.487 3033.51 317.487ZM3033.51 423.317C3048.32 423.317 3060.67 428.609 3070.55 439.192C3081.13 449.069 3086.42 461.416 3086.42 476.232C3086.42 491.049 3081.13 503.748 3070.55 514.331C3060.67 524.209 3048.32 529.147 3033.51 529.147C3018.69 529.147 3005.99 524.209 2995.41 514.331C2985.53 503.748 2980.59 491.049 2980.59 476.232C2980.59 461.416 2985.53 449.069 2995.41 439.192C3005.99 428.609 3018.69 423.317 3033.51 423.317ZM3033.51 529.147C3048.32 529.147 3060.67 534.439 3070.55 545.022C3081.13 554.899 3086.42 567.246 3086.42 582.062C3086.42 596.879 3081.13 609.578 3070.55 620.161C3060.67 630.039 3048.32 634.978 3033.51 634.978C3018.69 634.978 3005.99 630.039 2995.41 620.161C2985.53 609.578 2980.59 596.879 2980.59 582.062C2980.59 567.246 2985.53 554.899 2995.41 545.022C3005.99 534.439 3018.69 529.147 3033.51 529.147ZM3033.51 211.657C3048.32 211.657 3060.67 216.949 3070.55 227.532C3081.13 237.409 3086.42 249.756 3086.42 264.572C3086.42 279.388 3081.13 292.088 3070.55 302.671C3060.67 312.548 3048.32 317.487 3033.51 317.487C3018.69 317.487 3005.99 312.548 2995.41 302.671C2985.53 292.088 2980.59 279.388 2980.59 264.572C2980.59 249.756 2985.53 237.409 2995.41 227.532C3005.99 216.949 3018.69 211.657 3033.51 211.657ZM3139.34 211.657C3154.15 211.657 3166.5 216.949 3176.38 227.532C3186.96 237.409 3192.25 249.756 3192.25 264.572C3192.25 279.388 3186.96 292.088 3176.38 302.671C3166.5 312.548 3154.15 317.487 3139.34 317.487C3124.52 317.487 3111.82 312.548 3101.24 302.671C3091.36 292.088 3086.42 279.388 3086.42 264.572C3086.42 249.756 3091.36 237.409 3101.24 227.532C3111.82 216.949 3124.52 211.657 3139.34 211.657ZM3033.51 105.827C3048.32 105.827 3060.67 111.118 3070.55 121.701C3081.13 131.579 3086.42 143.926 3086.42 158.742C3086.42 173.558 3081.13 186.258 3070.55 196.841C3060.67 206.718 3048.32 211.657 3033.51 211.657C3018.69 211.657 3005.99 206.718 2995.41 196.841C2985.53 186.258 2980.59 173.558 2980.59 158.742C2980.59 143.926 2985.53 131.579 2995.41 121.701C3005.99 111.118 3018.69 105.827 3033.51 105.827ZM3245.17 105.827C3259.98 105.827 3272.33 111.118 3282.21 121.701C3292.79 131.579 3298.08 143.926 3298.08 158.742C3298.08 173.558 3292.79 186.258 3282.21 196.841C3272.33 206.718 3259.98 211.657 3245.17 211.657C3230.35 211.657 3217.65 206.718 3207.07 196.841C3197.19 186.258 3192.25 173.558 3192.25 158.742C3192.25 143.926 3197.19 131.579 3207.07 121.701C3217.65 111.118 3230.35 105.827 3245.17 105.827Z" fill="black"/>
<path d="M3912.31 317.487C3927.13 317.487 3939.47 322.779 3949.35 333.362C3959.94 343.239 3965.23 355.586 3965.23 370.402C3965.23 385.218 3959.94 397.918 3949.35 408.501C3939.47 418.379 3927.13 423.317 3912.31 423.317C3897.5 423.317 3884.8 418.379 3874.21 408.501C3864.34 397.918 3859.4 385.218 3859.4 370.402C3859.4 355.586 3864.34 343.239 3874.21 333.362C3884.8 322.779 3897.5 317.487 3912.31 317.487ZM3488.99 317.487C3503.81 317.487 3516.15 322.779 3526.03 333.362C3536.61 343.239 3541.91 355.586 3541.91 370.402C3541.91 385.218 3536.61 397.918 3526.03 408.501C3516.15 418.379 3503.81 423.317 3488.99 423.317C3474.17 423.317 3461.48 418.379 3450.89 408.501C3441.01 397.918 3436.08 385.218 3436.08 370.402C3436.08 355.586 3441.01 343.239 3450.89 333.362C3461.48 322.779 3474.17 317.487 3488.99 317.487ZM3806.48 423.317C3821.3 423.317 3833.64 428.609 3843.52 439.192C3854.1 449.069 3859.4 461.416 3859.4 476.232C3859.4 491.049 3854.1 503.748 3843.52 514.331C3833.64 524.209 3821.3 529.147 3806.48 529.147C3791.67 529.147 3778.97 524.209 3768.38 514.331C3758.51 503.748 3753.57 491.049 3753.57 476.232C3753.57 461.416 3758.51 449.069 3768.38 439.192C3778.97 428.609 3791.67 423.317 3806.48 423.317ZM3488.99 423.317C3503.81 423.317 3516.15 428.609 3526.03 439.192C3536.61 449.069 3541.91 461.416 3541.91 476.232C3541.91 491.049 3536.61 503.748 3526.03 514.331C3516.15 524.209 3503.81 529.147 3488.99 529.147C3474.17 529.147 3461.48 524.209 3450.89 514.331C3441.01 503.748 3436.08 491.049 3436.08 476.232C3436.08 461.416 3441.01 449.069 3450.89 439.192C3461.48 428.609 3474.17 423.317 3488.99 423.317ZM3594.82 529.147C3609.64 529.147 3621.98 534.439 3631.86 545.022C3642.44 554.899 3647.74 567.246 3647.74 582.062C3647.74 596.879 3642.44 609.578 3631.86 620.161C3621.98 630.039 3609.64 634.978 3594.82 634.978C3580 634.978 3567.31 630.039 3556.72 620.161C3546.84 609.578 3541.91 596.879 3541.91 582.062C3541.91 567.246 3546.84 554.899 3556.72 545.022C3567.31 534.439 3580 529.147 3594.82 529.147ZM3700.65 529.147C3715.47 529.147 3727.81 534.439 3737.69 545.022C3748.27 554.899 3753.57 567.246 3753.57 582.062C3753.57 596.879 3748.27 609.578 3737.69 620.161C3727.81 630.039 3715.47 634.978 3700.65 634.978C3685.83 634.978 3673.14 630.039 3662.55 620.161C3652.67 609.578 3647.74 596.879 3647.74 582.062C3647.74 567.246 3652.67 554.899 3662.55 545.022C3673.14 534.439 3685.83 529.147 3700.65 529.147ZM3912.31 529.147C3927.13 529.147 3939.47 534.439 3949.35 545.022C3959.94 554.899 3965.23 567.246 3965.23 582.062C3965.23 596.879 3959.94 609.578 3949.35 620.161C3939.47 630.039 3927.13 634.978 3912.31 634.978C3897.5 634.978 3884.8 630.039 3874.21 620.161C3864.34 609.578 3859.4 596.879 3859.4 582.062C3859.4 567.246 3864.34 554.899 3874.21 545.022C3884.8 534.439 3897.5 529.147 3912.31 529.147ZM3912.31 211.657C3927.13 211.657 3939.47 216.949 3949.35 227.532C3959.94 237.409 3965.23 249.756 3965.23 264.572C3965.23 279.388 3959.94 292.088 3949.35 302.671C3939.47 312.548 3927.13 317.487 3912.31 317.487C3897.5 317.487 3884.8 312.548 3874.21 302.671C3864.34 292.088 3859.4 279.388 3859.4 264.572C3859.4 249.756 3864.34 237.409 3874.21 227.532C3884.8 216.949 3897.5 211.657 3912.31 211.657ZM3488.99 211.657C3503.81 211.657 3516.15 216.949 3526.03 227.532C3536.61 237.409 3541.91 249.756 3541.91 264.572C3541.91 279.388 3536.61 292.088 3526.03 302.671C3516.15 312.548 3503.81 317.487 3488.99 317.487C3474.17 317.487 3461.48 312.548 3450.89 302.671C3441.01 292.088 3436.08 279.388 3436.08 264.572C3436.08 249.756 3441.01 237.409 3450.89 227.532C3461.48 216.949 3474.17 211.657 3488.99 211.657ZM3912.31 105.827C3927.13 105.827 3939.47 111.118 3949.35 121.701C3959.94 131.579 3965.23 143.926 3965.23 158.742C3965.23 173.558 3959.94 186.258 3949.35 196.841C3939.47 206.718 3927.13 211.657 3912.31 211.657C3897.5 211.657 3884.8 206.718 3874.21 196.841C3864.34 186.258 3859.4 173.558 3859.4 158.742C3859.4 143.926 3864.34 131.579 3874.21 121.701C3884.8 111.118 3897.5 105.827 3912.31 105.827ZM3488.99 105.827C3503.81 105.827 3516.15 111.118 3526.03 121.701C3536.61 131.579 3541.91 143.926 3541.91 158.742C3541.91 173.558 3536.61 186.258 3526.03 196.841C3516.15 206.718 3503.81 211.657 3488.99 211.657C3474.17 211.657 3461.48 206.718 3450.89 196.841C3441.01 186.258 3436.08 173.558 3436.08 158.742C3436.08 143.926 3441.01 131.579 3450.89 121.701C3461.48 111.118 3474.17 105.827 3488.99 105.827ZM3912.31 423.317C3927.13 423.317 3939.47 428.609 3949.35 439.192C3959.94 449.069 3965.23 461.416 3965.23 476.232C3965.23 491.049 3959.94 503.748 3949.35 514.331C3939.47 524.209 3927.13 529.147 3912.31 529.147C3897.5 529.147 3884.8 524.209 3874.21 514.331C3864.34 503.748 3859.4 491.049 3859.4 476.232C3859.4 461.416 3864.34 449.069 3874.21 439.192C3884.8 428.609 3897.5 423.317 3912.31 423.317Z" fill="black"/>
<path d="M4578.63 317.487C4593.44 317.487 4605.79 322.779 4615.67 333.362C4626.25 343.239 4631.54 355.586 4631.54 370.402C4631.54 385.218 4626.25 397.918 4615.67 408.501C4605.79 418.379 4593.44 423.317 4578.63 423.317C4563.81 423.317 4551.11 418.379 4540.53 408.501C4530.65 397.918 4525.71 385.218 4525.71 370.402C4525.71 355.586 4530.65 343.239 4540.53 333.362C4551.11 322.779 4563.81 317.487 4578.63 317.487ZM4155.31 317.487C4170.12 317.487 4182.47 322.779 4192.35 333.362C4202.93 343.239 4208.22 355.586 4208.22 370.402C4208.22 385.218 4202.93 397.918 4192.35 408.501C4182.47 418.379 4170.12 423.317 4155.31 423.317C4140.49 423.317 4127.79 418.379 4117.21 408.501C4107.33 397.918 4102.39 385.218 4102.39 370.402C4102.39 355.586 4107.33 343.239 4117.21 333.362C4127.79 322.779 4140.49 317.487 4155.31 317.487ZM4155.31 423.317C4170.12 423.317 4182.47 428.609 4192.35 439.192C4202.93 449.069 4208.22 461.416 4208.22 476.232C4208.22 491.049 4202.93 503.748 4192.35 514.331C4182.47 524.209 4170.12 529.147 4155.31 529.147C4140.49 529.147 4127.79 524.209 4117.21 514.331C4107.33 503.748 4102.39 491.049 4102.39 476.232C4102.39 461.416 4107.33 449.069 4117.21 439.192C4127.79 428.609 4140.49 423.317 4155.31 423.317ZM4578.63 529.147C4593.44 529.147 4605.79 534.439 4615.67 545.022C4626.25 554.899 4631.54 567.246 4631.54 582.062C4631.54 596.879 4626.25 609.578 4615.67 620.161C4605.79 630.039 4593.44 634.978 4578.63 634.978C4563.81 634.978 4551.11 630.039 4540.53 620.161C4530.65 609.578 4525.71 596.879 4525.71 582.062C4525.71 567.246 4530.65 554.899 4540.53 545.022C4551.11 534.439 4563.81 529.147 4578.63 529.147ZM4155.31 529.147C4170.12 529.147 4182.47 534.439 4192.35 545.022C4202.93 554.899 4208.22 567.246 4208.22 582.062C4208.22 596.879 4202.93 609.578 4192.35 620.161C4182.47 630.039 4170.12 634.978 4155.31 634.978C4140.49 634.978 4127.79 630.039 4117.21 620.161C4107.33 609.578 4102.39 596.879 4102.39 582.062C4102.39 567.246 4107.33 554.899 4117.21 545.022C4127.79 534.439 4140.49 529.147 4155.31 529.147ZM4261.14 211.657C4275.95 211.657 4288.3 216.949 4298.18 227.532C4308.76 237.409 4314.05 249.756 4314.05 264.572C4314.05 279.388 4308.76 292.088 4298.18 302.671C4288.3 312.548 4275.95 317.487 4261.14 317.487C4246.32 317.487 4233.62 312.548 4223.04 302.671C4213.16 292.088 4208.22 279.388 4208.22 264.572C4208.22 249.756 4213.16 237.409 4223.04 227.532C4233.62 216.949 4246.32 211.657 4261.14 211.657ZM4578.63 211.657C4593.44 211.657 4605.79 216.949 4615.67 227.532C4626.25 237.409 4631.54 249.756 4631.54 264.572C4631.54 279.388 4626.25 292.088 4615.67 302.671C4605.79 312.548 4593.44 317.487 4578.63 317.487C4563.81 317.487 4551.11 312.548 4540.53 302.671C4530.65 292.088 4525.71 279.388 4525.71 264.572C4525.71 249.756 4530.65 237.409 4540.53 227.532C4551.11 216.949 4563.81 211.657 4578.63 211.657ZM4155.31 211.657C4170.12 211.657 4182.47 216.949 4192.35 227.532C4202.93 237.409 4208.22 249.756 4208.22 264.572C4208.22 279.388 4202.93 292.088 4192.35 302.671C4182.47 312.548 4170.12 317.487 4155.31 317.487C4140.49 317.487 4127.79 312.548 4117.21 302.671C4107.33 292.088 4102.39 279.388 4102.39 264.572C4102.39 249.756 4107.33 237.409 4117.21 227.532C4127.79 216.949 4140.49 211.657 4155.31 211.657ZM4366.97 105.827C4381.78 105.827 4394.13 111.118 4404.01 121.701C4414.59 131.579 4419.88 143.926 4419.88 158.742C4419.88 173.558 4414.59 186.258 4404.01 196.841C4394.13 206.718 4381.78 211.657 4366.97 211.657C4352.15 211.657 4339.45 206.718 4328.87 196.841C4318.99 186.258 4314.05 173.558 4314.05 158.742C4314.05 143.926 4318.99 131.579 4328.87 121.701C4339.45 111.118 4352.15 105.827 4366.97 105.827ZM4472.8 105.827C4487.61 105.827 4499.96 111.118 4509.84 121.701C4520.42 131.579 4525.71 143.926 4525.71 158.742C4525.71 173.558 4520.42 186.258 4509.84 196.841C4499.96 206.718 4487.61 211.657 4472.8 211.657C4457.98 211.657 4445.28 206.718 4434.7 196.841C4424.82 186.258 4419.88 173.558 4419.88 158.742C4419.88 143.926 4424.82 131.579 4434.7 121.701C4445.28 111.118 4457.98 105.827 4472.8 105.827ZM4155.31 105.827C4170.12 105.827 4182.47 111.118 4192.35 121.701C4202.93 131.579 4208.22 143.926 4208.22 158.742C4208.22 173.558 4202.93 186.258 4192.35 196.841C4182.47 206.718 4170.12 211.657 4155.31 211.657C4140.49 211.657 4127.79 206.718 4117.21 196.841C4107.33 186.258 4102.39 173.558 4102.39 158.742C4102.39 143.926 4107.33 131.579 4117.21 121.701C4127.79 111.118 4140.49 105.827 4155.31 105.827ZM4578.63 423.317C4593.44 423.317 4605.79 428.609 4615.67 439.192C4626.25 449.069 4631.54 461.416 4631.54 476.232C4631.54 491.049 4626.25 503.748 4615.67 514.331C4605.79 524.209 4593.44 529.147 4578.63 529.147C4563.81 529.147 4551.11 524.209 4540.53 514.331C4530.65 503.748 4525.71 491.049 4525.71 476.232C4525.71 461.416 4530.65 449.069 4540.53 439.192C4551.11 428.609 4563.81 423.317 4578.63 423.317Z" fill="black"/>
<path d="M5244.94 317.487C5259.76 317.487 5272.11 322.779 5281.98 333.362C5292.57 343.239 5297.86 355.586 5297.86 370.402C5297.86 385.218 5292.57 397.918 5281.98 408.501C5272.11 418.379 5259.76 423.317 5244.94 423.317C5230.13 423.317 5217.43 418.379 5206.85 408.501C5196.97 397.918 5192.03 385.218 5192.03 370.402C5192.03 355.586 5196.97 343.239 5206.85 333.362C5217.43 322.779 5230.13 317.487 5244.94 317.487ZM4821.62 317.487C4836.44 317.487 4848.79 322.779 4858.66 333.362C4869.25 343.239 4874.54 355.586 4874.54 370.402C4874.54 385.218 4869.25 397.918 4858.66 408.501C4848.79 418.379 4836.44 423.317 4821.62 423.317C4806.81 423.317 4794.11 418.379 4783.52 408.501C4773.65 397.918 4768.71 385.218 4768.71 370.402C4768.71 355.586 4773.65 343.239 4783.52 333.362C4794.11 322.779 4806.81 317.487 4821.62 317.487ZM4821.62 423.317C4836.44 423.317 4848.79 428.609 4858.66 439.192C4869.25 449.069 4874.54 461.416 4874.54 476.232C4874.54 491.049 4869.25 503.748 4858.66 514.331C4848.79 524.209 4836.44 529.147 4821.62 529.147C4806.81 529.147 4794.11 524.209 4783.52 514.331C4773.65 503.748 4768.71 491.049 4768.71 476.232C4768.71 461.416 4773.65 449.069 4783.52 439.192C4794.11 428.609 4806.81 423.317 4821.62 423.317ZM5244.94 529.147C5259.76 529.147 5272.11 534.439 5281.98 545.022C5292.57 554.899 5297.86 567.246 5297.86 582.062C5297.86 596.879 5292.57 609.578 5281.98 620.161C5272.11 630.039 5259.76 634.978 5244.94 634.978C5230.13 634.978 5217.43 630.039 5206.85 620.161C5196.97 609.578 5192.03 596.879 5192.03 582.062C5192.03 567.246 5196.97 554.899 5206.85 545.022C5217.43 534.439 5230.13 529.147 5244.94 529.147ZM4821.62 529.147C4836.44 529.147 4848.79 534.439 4858.66 545.022C4869.25 554.899 4874.54 567.246 4874.54 582.062C4874.54 596.879 4869.25 609.578 4858.66 620.161C4848.79 630.039 4836.44 634.978 4821.62 634.978C4806.81 634.978 4794.11 630.039 4783.52 620.161C4773.65 609.578 4768.71 596.879 4768.71 582.062C4768.71 567.246 4773.65 554.899 4783.52 545.022C4794.11 534.439 4806.81 529.147 4821.62 529.147ZM4927.45 211.657C4942.27 211.657 4954.62 216.949 4964.49 227.532C4975.08 237.409 4980.37 249.756 4980.37 264.572C4980.37 279.388 4975.08 292.088 4964.49 302.671C4954.62 312.548 4942.27 317.487 4927.45 317.487C4912.64 317.487 4899.94 312.548 4889.35 302.671C4879.48 292.088 4874.54 279.388 4874.54 264.572C4874.54 249.756 4879.48 237.409 4889.35 227.532C4899.94 216.949 4912.64 211.657 4927.45 211.657ZM5244.94 211.657C5259.76 211.657 5272.11 216.949 5281.98 227.532C5292.57 237.409 5297.86 249.756 5297.86 264.572C5297.86 279.388 5292.57 292.088 5281.98 302.671C5272.11 312.548 5259.76 317.487 5244.94 317.487C5230.13 317.487 5217.43 312.548 5206.85 302.671C5196.97 292.088 5192.03 279.388 5192.03 264.572C5192.03 249.756 5196.97 237.409 5206.85 227.532C5217.43 216.949 5230.13 211.657 5244.94 211.657ZM4821.62 211.657C4836.44 211.657 4848.79 216.949 4858.66 227.532C4869.25 237.409 4874.54 249.756 4874.54 264.572C4874.54 279.388 4869.25 292.088 4858.66 302.671C4848.79 312.548 4836.44 317.487 4821.62 317.487C4806.81 317.487 4794.11 312.548 4783.52 302.671C4773.65 292.088 4768.71 279.388 4768.71 264.572C4768.71 249.756 4773.65 237.409 4783.52 227.532C4794.11 216.949 4806.81 211.657 4821.62 211.657ZM5033.28 105.827C5048.1 105.827 5060.45 111.118 5070.32 121.701C5080.91 131.579 5086.2 143.926 5086.2 158.742C5086.2 173.558 5080.91 186.258 5070.32 196.841C5060.45 206.718 5048.1 211.657 5033.28 211.657C5018.47 211.657 5005.77 206.718 4995.19 196.841C4985.31 186.258 4980.37 173.558 4980.37 158.742C4980.37 143.926 4985.31 131.579 4995.19 121.701C5005.77 111.118 5018.47 105.827 5033.28 105.827ZM5139.11 105.827C5153.93 105.827 5166.28 111.118 5176.15 121.701C5186.74 131.579 5192.03 143.926 5192.03 158.742C5192.03 173.558 5186.74 186.258 5176.15 196.841C5166.28 206.718 5153.93 211.657 5139.11 211.657C5124.3 211.657 5111.6 206.718 5101.02 196.841C5091.14 186.258 5086.2 173.558 5086.2 158.742C5086.2 143.926 5091.14 131.579 5101.02 121.701C5111.6 111.118 5124.3 105.827 5139.11 105.827ZM4821.62 105.827C4836.44 105.827 4848.79 111.118 4858.66 121.701C4869.25 131.579 4874.54 143.926 4874.54 158.742C4874.54 173.558 4869.25 186.258 4858.66 196.841C4848.79 206.718 4836.44 211.657 4821.62 211.657C4806.81 211.657 4794.11 206.718 4783.52 196.841C4773.65 186.258 4768.71 173.558 4768.71 158.742C4768.71 143.926 4773.65 131.579 4783.52 121.701C4794.11 111.118 4806.81 105.827 4821.62 105.827ZM5244.94 423.317C5259.76 423.317 5272.11 428.609 5281.98 439.192C5292.57 449.069 5297.86 461.416 5297.86 476.232C5297.86 491.049 5292.57 503.748 5281.98 514.331C5272.11 524.209 5259.76 529.147 5244.94 529.147C5230.13 529.147 5217.43 524.209 5206.85 514.331C5196.97 503.748 5192.03 491.049 5192.03 476.232C5192.03 461.416 5196.97 449.069 5206.85 439.192C5217.43 428.609 5230.13 423.317 5244.94 423.317Z" fill="black"/>
<path d="M5699.6 317.487C5714.42 317.487 5726.76 322.779 5736.64 333.362C5747.22 343.239 5752.52 355.586 5752.52 370.402C5752.52 385.218 5747.22 397.918 5736.64 408.501C5726.76 418.379 5714.42 423.317 5699.6 423.317C5684.78 423.317 5672.08 418.379 5661.5 408.501C5651.62 397.918 5646.69 385.218 5646.69 370.402C5646.69 355.586 5651.62 343.239 5661.5 333.362C5672.08 322.779 5684.78 317.487 5699.6 317.487ZM5805.43 317.487C5820.25 317.487 5832.59 322.779 5842.47 333.362C5853.05 343.239 5858.35 355.586 5858.35 370.402C5858.35 385.218 5853.05 397.918 5842.47 408.501C5832.59 418.379 5820.25 423.317 5805.43 423.317C5790.61 423.317 5777.91 418.379 5767.33 408.501C5757.45 397.918 5752.52 385.218 5752.52 370.402C5752.52 355.586 5757.45 343.239 5767.33 333.362C5777.91 322.779 5790.61 317.487 5805.43 317.487ZM5911.26 317.487C5926.08 317.487 5938.42 322.779 5948.3 333.362C5958.88 343.239 5964.18 355.586 5964.18 370.402C5964.18 385.218 5958.88 397.918 5948.3 408.501C5938.42 418.379 5926.08 423.317 5911.26 423.317C5896.44 423.317 5883.74 418.379 5873.16 408.501C5863.28 397.918 5858.35 385.218 5858.35 370.402C5858.35 355.586 5863.28 343.239 5873.16 333.362C5883.74 322.779 5896.44 317.487 5911.26 317.487ZM5487.94 317.487C5502.76 317.487 5515.1 322.779 5524.98 333.362C5535.56 343.239 5540.85 355.586 5540.85 370.402C5540.85 385.218 5535.56 397.918 5524.98 408.501C5515.1 418.379 5502.76 423.317 5487.94 423.317C5473.12 423.317 5460.42 418.379 5449.84 408.501C5439.96 397.918 5435.02 385.218 5435.02 370.402C5435.02 355.586 5439.96 343.239 5449.84 333.362C5460.42 322.779 5473.12 317.487 5487.94 317.487ZM5487.94 423.317C5502.76 423.317 5515.1 428.609 5524.98 439.192C5535.56 449.069 5540.85 461.416 5540.85 476.232C5540.85 491.049 5535.56 503.748 5524.98 514.331C5515.1 524.209 5502.76 529.147 5487.94 529.147C5473.12 529.147 5460.42 524.209 5449.84 514.331C5439.96 503.748 5435.02 491.049 5435.02 476.232C5435.02 461.416 5439.96 449.069 5449.84 439.192C5460.42 428.609 5473.12 423.317 5487.94 423.317ZM5699.6 529.147C5714.42 529.147 5726.76 534.439 5736.64 545.022C5747.22 554.899 5752.52 567.246 5752.52 582.062C5752.52 596.879 5747.22 609.578 5736.64 620.161C5726.76 630.039 5714.42 634.978 5699.6 634.978C5684.78 634.978 5672.08 630.039 5661.5 620.161C5651.62 609.578 5646.69 596.879 5646.69 582.062C5646.69 567.246 5651.62 554.899 5661.5 545.022C5672.08 534.439 5684.78 529.147 5699.6 529.147ZM5911.26 211.657C5926.08 211.657 5938.42 216.949 5948.3 227.532C5958.88 237.409 5964.18 249.756 5964.18 264.572C5964.18 279.388 5958.88 292.088 5948.3 302.671C5938.42 312.548 5926.08 317.487 5911.26 317.487C5896.44 317.487 5883.74 312.548 5873.16 302.671C5863.28 292.088 5858.35 279.388 5858.35 264.572C5858.35 249.756 5863.28 237.409 5873.16 227.532C5883.74 216.949 5896.44 211.657 5911.26 211.657ZM5487.94 211.657C5502.76 211.657 5515.1 216.949 5524.98 227.532C5535.56 237.409 5540.85 249.756 5540.85 264.572C5540.85 279.388 5535.56 292.088 5524.98 302.671C5515.1 312.548 5502.76 317.487 5487.94 317.487C5473.12 317.487 5460.42 312.548 5449.84 302.671C5439.96 292.088 5435.02 279.388 5435.02 264.572C5435.02 249.756 5439.96 237.409 5449.84 227.532C5460.42 216.949 5473.12 211.657 5487.94 211.657ZM5699.6 105.827C5714.42 105.827 5726.76 111.118 5736.64 121.701C5747.22 131.579 5752.52 143.926 5752.52 158.742C5752.52 173.558 5747.22 186.258 5736.64 196.841C5726.76 206.718 5714.42 211.657 5699.6 211.657C5684.78 211.657 5672.08 206.718 5661.5 196.841C5651.62 186.258 5646.69 173.558 5646.69 158.742C5646.69 143.926 5651.62 131.579 5661.5 121.701C5672.08 111.118 5684.78 105.827 5699.6 105.827ZM5805.43 105.827C5820.25 105.827 5832.59 111.118 5842.47 121.701C5853.05 131.579 5858.35 143.926 5858.35 158.742C5858.35 173.558 5853.05 186.258 5842.47 196.841C5832.59 206.718 5820.25 211.657 5805.43 211.657C5790.61 211.657 5777.91 206.718 5767.33 196.841C5757.45 186.258 5752.52 173.558 5752.52 158.742C5752.52 143.926 5757.45 131.579 5767.33 121.701C5777.91 111.118 5790.61 105.827 5805.43 105.827ZM5805.43 529.147C5820.25 529.147 5832.59 534.439 5842.47 545.022C5853.05 554.899 5858.35 567.246 5858.35 582.062C5858.35 596.879 5853.05 609.578 5842.47 620.161C5832.59 630.039 5820.25 634.978 5805.43 634.978C5790.61 634.978 5777.91 630.039 5767.33 620.161C5757.45 609.578 5752.52 596.879 5752.52 582.062C5752.52 567.246 5757.45 554.899 5767.33 545.022C5777.91 534.439 5790.61 529.147 5805.43 529.147ZM5593.77 105.827C5608.59 105.827 5620.93 111.118 5630.81 121.701C5641.39 131.579 5646.69 143.926 5646.69 158.742C5646.69 173.558 5641.39 186.258 5630.81 196.841C5620.93 206.718 5608.59 211.657 5593.77 211.657C5578.95 211.657 5566.25 206.718 5555.67 196.841C5545.79 186.258 5540.85 173.558 5540.85 158.742C5540.85 143.926 5545.79 131.579 5555.67 121.701C5566.25 111.118 5578.95 105.827 5593.77 105.827ZM5593.77 317.487C5608.59 317.487 5620.93 322.779 5630.81 333.362C5641.39 343.239 5646.69 355.586 5646.69 370.402C5646.69 385.218 5641.39 397.918 5630.81 408.501C5620.93 418.379 5608.59 423.317 5593.77 423.317C5578.95 423.317 5566.25 418.379 5555.67 408.501C5545.79 397.918 5540.85 385.218 5540.85 370.402C5540.85 355.586 5545.79 343.239 5555.67 333.362C5566.25 322.779 5578.95 317.487 5593.77 317.487ZM5593.77 529.147C5608.59 529.147 5620.93 534.439 5630.81 545.022C5641.39 554.899 5646.69 567.246 5646.69 582.062C5646.69 596.879 5641.39 609.578 5630.81 620.161C5620.93 630.039 5608.59 634.978 5593.77 634.978C5578.95 634.978 5566.25 630.039 5555.67 620.161C5545.79 609.578 5540.85 596.879 5540.85 582.062C5540.85 567.246 5545.79 554.899 5555.67 545.022C5566.25 534.439 5578.95 529.147 5593.77 529.147ZM5911.26 529.147C5926.08 529.147 5938.42 534.439 5948.3 545.022C5958.88 554.899 5964.18 567.246 5964.18 582.062C5964.18 596.879 5958.88 609.578 5948.3 620.161C5938.42 630.039 5926.08 634.978 5911.26 634.978C5896.44 634.978 5883.74 630.039 5873.16 620.161C5863.28 609.578 5858.35 596.879 5858.35 582.062C5858.35 567.246 5863.28 554.899 5873.16 545.022C5883.74 534.439 5896.44 529.147 5911.26 529.147Z" fill="black"/>
<path d="M6154.26 317.487C6169.07 317.487 6181.42 322.779 6191.3 333.362C6201.88 343.239 6207.17 355.586 6207.17 370.402C6207.17 385.218 6201.88 397.918 6191.3 408.501C6181.42 418.379 6169.07 423.317 6154.26 423.317C6139.44 423.317 6126.74 418.379 6116.16 408.501C6106.28 397.918 6101.34 385.218 6101.34 370.402C6101.34 355.586 6106.28 343.239 6116.16 333.362C6126.74 322.779 6139.44 317.487 6154.26 317.487ZM6154.26 423.317C6169.07 423.317 6181.42 428.609 6191.3 439.192C6201.88 449.069 6207.17 461.416 6207.17 476.232C6207.17 491.049 6201.88 503.748 6191.3 514.331C6181.42 524.209 6169.07 529.147 6154.26 529.147C6139.44 529.147 6126.74 524.209 6116.16 514.331C6106.28 503.748 6101.34 491.049 6101.34 476.232C6101.34 461.416 6106.28 449.069 6116.16 439.192C6126.74 428.609 6139.44 423.317 6154.26 423.317ZM6154.26 529.147C6169.07 529.147 6181.42 534.439 6191.3 545.022C6201.88 554.899 6207.17 567.246 6207.17 582.062C6207.17 596.879 6201.88 609.578 6191.3 620.161C6181.42 630.039 6169.07 634.978 6154.26 634.978C6139.44 634.978 6126.74 630.039 6116.16 620.161C6106.28 609.578 6101.34 596.879 6101.34 582.062C6101.34 567.246 6106.28 554.899 6116.16 545.022C6126.74 534.439 6139.44 529.147 6154.26 529.147ZM6154.26 211.657C6169.07 211.657 6181.42 216.949 6191.3 227.532C6201.88 237.409 6207.17 249.756 6207.17 264.572C6207.17 279.388 6201.88 292.088 6191.3 302.671C6181.42 312.548 6169.07 317.487 6154.26 317.487C6139.44 317.487 6126.74 312.548 6116.16 302.671C6106.28 292.088 6101.34 279.388 6101.34 264.572C6101.34 249.756 6106.28 237.409 6116.16 227.532C6126.74 216.949 6139.44 211.657 6154.26 211.657ZM6260.09 211.657C6274.9 211.657 6287.25 216.949 6297.13 227.532C6307.71 237.409 6313 249.756 6313 264.572C6313 279.388 6307.71 292.088 6297.13 302.671C6287.25 312.548 6274.9 317.487 6260.09 317.487C6245.27 317.487 6232.57 312.548 6221.99 302.671C6212.11 292.088 6207.17 279.388 6207.17 264.572C6207.17 249.756 6212.11 237.409 6221.99 227.532C6232.57 216.949 6245.27 211.657 6260.09 211.657ZM6154.26 105.827C6169.07 105.827 6181.42 111.118 6191.3 121.701C6201.88 131.579 6207.17 143.926 6207.17 158.742C6207.17 173.558 6201.88 186.258 6191.3 196.841C6181.42 206.718 6169.07 211.657 6154.26 211.657C6139.44 211.657 6126.74 206.718 6116.16 196.841C6106.28 186.258 6101.34 173.558 6101.34 158.742C6101.34 143.926 6106.28 131.579 6116.16 121.701C6126.74 111.118 6139.44 105.827 6154.26 105.827ZM6365.92 105.827C6380.73 105.827 6393.08 111.118 6402.96 121.701C6413.54 131.579 6418.83 143.926 6418.83 158.742C6418.83 173.558 6413.54 186.258 6402.96 196.841C6393.08 206.718 6380.73 211.657 6365.92 211.657C6351.1 211.657 6338.4 206.718 6327.82 196.841C6317.94 186.258 6313 173.558 6313 158.742C6313 143.926 6317.94 131.579 6327.82 121.701C6338.4 111.118 6351.1 105.827 6365.92 105.827Z" fill="black"/>
</svg>
